<?xml version="1.0" standalone="no"?>
<!DOCTYPE svg PUBLIC "-//W3C//DTD SVG 20010904//EN"
 "http://www.w3.org/TR/2001/REC-SVG-20010904/DTD/svg10.dtd">
<svg version="1.0" xmlns="http://www.w3.org/2000/svg"
 width="1499.000000pt" height="1959.000000pt" viewBox="0 0 1499.000000 1959.000000"
 preserveAspectRatio="xMidYMid meet">

<g transform="translate(0.000000,1959.000000) scale(0.100000,-0.100000)"
fill="#000000" stroke="none">
<path d="M13645 19134 c-33 -13 -88 -29 -122 -34 -34 -6 -75 -15 -90 -21 -16
-6 -46 -12 -68 -14 -40 -3 -240 -26 -385 -44 -41 -5 -133 -12 -205 -15 -128
-6 -221 -11 -420 -21 -55 -3 -147 -7 -205 -10 -292 -14 -478 -27 -710 -51
-140 -14 -271 -27 -290 -28 -44 -4 -156 -21 -235 -36 -33 -6 -96 -18 -140 -26
-44 -8 -114 -24 -155 -35 -41 -10 -91 -22 -110 -25 -53 -9 -339 -100 -475
-151 -202 -77 -526 -241 -645 -326 -14 -10 -63 -43 -110 -74 -47 -30 -103 -71
-125 -89 -22 -19 -53 -45 -70 -58 -104 -83 -277 -245 -371 -347 -54 -59 -193
-233 -230 -289 -17 -25 -50 -74 -75 -110 -24 -36 -52 -81 -62 -100 -10 -19
-31 -57 -48 -85 -29 -50 -41 -74 -106 -215 -152 -329 -244 -747 -243 -1097 2
-218 8 -299 35 -423 8 -36 19 -86 24 -111 38 -172 184 -431 246 -437 17 -1 35
1 41 5 6 5 33 51 59 103 55 110 140 257 184 317 113 156 553 644 866 962 556
563 1018 946 1525 1263 345 216 961 542 1100 583 25 7 -96 -116 -306 -310 -53
-49 -111 -103 -129 -120 -175 -165 -262 -245 -355 -325 -35 -30 -75 -67 -89
-81 -14 -14 -80 -72 -146 -129 -66 -57 -131 -113 -145 -126 -50 -45 -89 -80
-130 -114 -23 -19 -57 -48 -75 -65 -51 -46 -69 -62 -240 -210 -88 -76 -170
-148 -181 -159 -12 -12 -34 -32 -50 -46 -63 -53 -210 -184 -219 -195 -5 -6
-48 -45 -95 -85 -98 -85 -139 -123 -335 -315 -199 -195 -349 -338 -635 -605
-226 -210 -464 -455 -520 -534 -30 -42 -71 -99 -91 -125 -138 -180 -366 -604
-476 -886 -20 -49 -39 -97 -42 -105 -4 -8 -28 -80 -53 -160 -88 -275 -78 -242
-126 -450 -41 -177 -105 -581 -96 -605 8 -21 -12 -26 -28 -7 -8 9 -22 37 -31
62 -23 69 -41 114 -51 129 -19 29 -136 270 -136 279 0 5 -6 15 -14 21 -8 7
-17 23 -20 36 -7 27 -113 212 -133 233 -7 7 -13 17 -13 22 0 5 -19 37 -42 70
-24 34 -50 72 -58 85 -40 64 -221 305 -260 346 -8 8 -44 49 -80 89 -103 117
-209 219 -286 275 -38 29 -95 80 -125 114 -55 62 -75 79 -299 256 -69 55 -127
102 -130 105 -3 3 -25 21 -50 40 -25 19 -50 39 -56 45 -6 5 -30 26 -54 45 -24
19 -102 85 -174 146 -262 221 -613 509 -686 563 -41 30 -77 58 -80 61 -3 4
-32 26 -65 50 -33 24 -62 46 -65 50 -3 3 -75 58 -160 120 -85 63 -161 120
-170 127 -8 7 -54 41 -102 76 -169 122 -515 375 -534 390 -10 9 -84 65 -164
123 -80 59 -147 110 -150 113 -3 3 -32 26 -65 50 -33 25 -62 47 -65 51 -3 3
-86 68 -185 145 -163 126 -212 164 -325 256 -127 101 -172 141 -167 146 11 10
449 -157 678 -260 1113 -499 2033 -1220 2777 -2174 60 -78 139 -183 176 -235
36 -51 76 -106 89 -123 l25 -30 16 40 c9 21 34 62 55 90 50 65 101 169 158
315 100 255 115 352 91 587 -19 184 -71 410 -129 558 -10 28 -19 55 -19 60 -1
6 -9 28 -20 50 -11 22 -19 43 -20 48 0 11 -128 268 -150 302 -11 17 -25 41
-32 55 -29 58 -178 265 -265 369 -75 88 -268 282 -336 336 -34 28 -71 57 -82
67 -11 9 -40 33 -65 53 -25 21 -55 42 -67 48 -13 6 -23 14 -23 19 0 4 -5 8
-10 8 -6 0 -41 22 -78 49 -37 26 -98 65 -137 86 -38 21 -99 54 -135 73 -83 45
-125 66 -175 87 -22 9 -51 21 -65 27 -14 6 -36 15 -50 20 -14 6 -38 16 -55 23
-60 25 -81 32 -115 42 -76 22 -216 66 -235 74 -11 4 -33 10 -50 13 -16 3 -51
10 -77 16 -233 51 -282 59 -473 79 -55 6 -134 16 -175 22 -41 6 -228 14 -415
18 -332 7 -478 5 -1145 -19 -525 -19 -902 0 -1075 54 -80 25 -82 22 -27 -51
20 -28 44 -61 52 -73 18 -26 102 -142 164 -225 24 -33 50 -72 57 -87 7 -16 16
-28 20 -28 4 0 12 -12 18 -27 6 -16 29 -55 51 -88 22 -33 45 -72 51 -87 6 -16
15 -28 19 -28 5 0 12 -9 15 -21 4 -11 19 -40 35 -62 15 -23 49 -82 75 -132 27
-49 59 -108 71 -130 12 -22 45 -83 72 -135 28 -52 62 -115 75 -140 14 -25 40
-72 57 -105 17 -33 49 -91 71 -130 21 -38 44 -81 51 -95 7 -14 15 -27 19 -30
3 -3 12 -17 20 -32 16 -30 115 -197 141 -237 10 -14 26 -42 37 -61 11 -19 39
-60 63 -91 23 -31 50 -67 58 -79 15 -22 79 -111 102 -142 7 -9 20 -26 28 -38
35 -51 87 -115 224 -274 160 -186 539 -545 765 -725 150 -120 392 -286 536
-367 205 -116 193 -110 240 -129 67 -27 77 -32 150 -60 83 -32 108 -42 138
-55 12 -5 69 -21 127 -35 58 -14 121 -30 140 -35 96 -24 137 -30 288 -41 94
-6 211 -8 275 -4 189 12 436 59 522 99 17 8 47 16 67 17 34 3 46 -4 115 -61
261 -216 531 -522 744 -840 77 -116 97 -149 104 -169 3 -12 10 -21 15 -21 4 0
13 -12 19 -27 6 -16 29 -59 51 -98 44 -79 145 -280 184 -370 15 -33 32 -69 38
-79 6 -11 14 -32 19 -48 7 -27 6 -28 -29 -28 -99 0 -486 -22 -637 -35 -581
-53 -1067 -174 -1403 -351 -339 -178 -540 -395 -629 -681 l-28 -88 -3 -772 -3
-773 1461 0 1460 0 0 -205 0 -204 -2142 -4 c-2349 -4 -2192 0 -2427 -62 -750
-198 -1225 -827 -1395 -1845 -98 -589 -99 -1323 -1 -1954 96 -617 296 -1115
590 -1465 211 -251 471 -413 780 -484 85 -19 126 -21 688 -24 l597 -4 0 798
c0 846 2 876 50 1093 78 353 270 686 509 884 220 181 430 276 751 338 115 21
119 22 1790 28 l1675 6 125 23 c698 129 1133 526 1259 1147 39 192 42 337 39
1809 l-4 1410 -22 97 c-97 425 -364 732 -832 956 -324 156 -750 266 -1228 318
-42 4 -66 12 -69 21 -11 29 44 420 81 578 13 55 27 120 31 145 4 25 13 63 20
85 7 22 23 74 35 115 47 164 62 208 120 364 33 90 77 199 98 242 22 43 58 120
82 169 24 50 65 125 92 168 26 43 48 80 48 83 0 10 86 143 116 181 19 23 34
44 34 47 0 3 29 46 65 95 36 50 65 95 65 101 0 23 55 20 172 -9 67 -16 161
-33 207 -36 47 -3 89 -9 94 -12 9 -6 259 -4 347 2 30 2 82 9 115 14 33 5 92
14 131 20 39 5 113 23 165 39 52 16 139 44 194 61 100 30 466 206 522 250 15
12 50 37 77 54 27 18 73 48 102 67 29 19 72 48 96 64 37 25 100 77 208 172 36
32 84 74 131 114 62 53 345 338 419 421 36 40 86 96 111 124 55 60 308 378
335 420 10 17 31 46 46 65 26 34 157 240 171 270 4 8 34 58 67 110 73 117 296
557 374 740 32 74 71 163 87 198 16 35 29 65 29 68 0 2 16 38 35 80 19 41 35
77 35 79 0 3 13 34 30 69 16 36 36 82 45 103 37 90 56 129 176 367 69 138 185
348 257 468 73 119 132 219 132 222 0 12 -36 4 -95 -20z m-7994 -7868 c180
-38 330 -174 390 -354 33 -96 32 -230 -3 -328 -60 -171 -191 -294 -361 -340
-71 -19 -209 -18 -277 2 -177 52 -313 188 -367 366 -23 77 -20 217 6 299 43
135 145 251 275 314 113 54 216 66 337 41z"/>
<path d="M10438 8308 c-4 -824 -4 -846 -26 -955 -159 -803 -655 -1260 -1447
-1333 -68 -6 -697 -10 -1657 -10 -1695 0 -1645 2 -1895 -60 -340 -83 -640
-257 -827 -480 -206 -246 -306 -505 -336 -875 -13 -171 -14 -2771 0 -2917 71
-751 731 -1242 1890 -1407 626 -89 1477 -91 2110 -5 993 135 1613 489 1769
1009 36 121 41 228 41 938 l0 687 -1465 0 -1465 0 0 205 0 204 2138 4 c2303 4
2179 1 2402 55 709 171 1187 746 1389 1668 173 796 137 1952 -84 2695 -232
778 -663 1251 -1270 1396 -60 14 -152 17 -667 20 l-597 4 -3 -843z m-1473
-6160 c216 -71 357 -265 358 -493 0 -156 -48 -272 -159 -381 -36 -37 -88 -74
-125 -93 -66 -32 -178 -61 -239 -61 -60 0 -172 29 -235 60 -265 130 -370 470
-224 726 125 219 385 320 624 242z"/>
</g>
</svg>
