<?xml version="1.0" standalone="no"?>
<!DOCTYPE svg PUBLIC "-//W3C//DTD SVG 20010904//EN"
 "http://www.w3.org/TR/2001/REC-SVG-20010904/DTD/svg10.dtd">
<svg version="1.0" xmlns="http://www.w3.org/2000/svg"
 width="500.000000pt" height="500.000000pt" viewBox="0 0 500.000000 500.000000"
 preserveAspectRatio="xMidYMid meet">

<g transform="translate(0.000000,500.000000) scale(0.100000,-0.100000)"
fill="currentColor" stroke="none">
<path d="M1093 4680 l-772 -5 -22 -22 -22 -22 12 -2063 c11 -2008 13 -2196 26
-2230 16 -41 23 -41 1037 -33 535 4 982 11 994 16 13 4 27 17 33 27 7 14 8
385 1 1198 -5 649 -12 1610 -16 2137 -6 929 -7 958 -26 982 l-19 25 -227 -2
c-125 -1 -575 -5 -999 -8z"/>
<path d="M3208 4680 c-486 -4 -569 -7 -582 -20 -14 -13 -14 -132 -7 -1011 5
-548 11 -1002 15 -1008 8 -12 771 -13 1594 -2 387 5 464 8 472 20 8 14 5 1620
-4 1886 -4 99 -7 121 -22 132 -19 14 -251 14 -1466 3z"/>
<path d="M3315 2360 c-363 -3 -666 -9 -674 -14 -11 -7 -12 -165 -6 -1010 5
-726 10 -1005 19 -1015 9 -12 158 -13 1019 -8 729 5 1013 10 1029 18 l21 11
-6 1002 c-6 931 -8 1002 -24 1013 -18 14 -19 14 -1378 3z"/>
</g>
</svg>
